<svg xmlns="http://www.w3.org/2000/svg" version="1.1" xmlns:xlink="http://www.w3.org/1999/xlink" xmlns:svgjs="http://svgjs.dev/svgjs" width="1000" height="750" viewBox="0 0 1000 750"><rect width="1000" height="750" fill="#ed1703"></rect><g transform="matrix(0.5748031496062992,0,0,0.5748031496062992,213.03619930996393,83.23644352749051)"><svg viewBox="0 0 243 247" data-background-color="#ed1703" preserveAspectRatio="xMidYMid meet" height="1016" width="1000" xmlns="http://www.w3.org/2000/svg" xmlns:xlink="http://www.w3.org/1999/xlink"><g id="tight-bounds" transform="matrix(1,0,0,1,-0.18507033952522534,-0.1000026563187646)"><svg viewBox="0 0 243.37014084507044 247.2" height="247.2" width="243.37014084507044"><g><svg viewBox="0 0 243.37014084507044 247.2" height="247.2" width="243.37014084507044"><g><svg viewBox="0 0 243.37014084507044 247.2" height="247.2" width="243.37014084507044"><g id="textblocktransform"><svg viewBox="0 0 243.37014084507044 247.2" height="247.2" width="243.37014084507044" id="textblock"><g><svg viewBox="0 0 243.37014084507044 247.2" height="247.2" width="243.37014084507044"><g transform="matrix(1,0,0,1,0,0)"><svg width="243.37014084507044" viewBox="1.850000023841858 -35.20000076293945 34.95000076293945 35.5" height="247.2" data-palette-color="#ffffff"><path d="M35.75-24.75L28.9-24.75Q27.55-27.35 25.15-28.68 22.75-30 19.6-30L19.6-30Q16.15-30 13.45-28.45 10.75-26.9 9.22-24.05 7.7-21.2 7.7-17.45L7.7-17.45Q7.7-13.7 9.22-10.83 10.75-7.95 13.45-6.4 16.15-4.85 19.6-4.85L19.6-4.85Q24.25-4.85 27.15-7.45 30.05-10.05 30.7-14.5L30.7-14.5 17.65-14.5 17.65-19.05 36.8-19.05 36.8-14.6Q36.25-10.55 33.93-7.15 31.6-3.75 27.88-1.73 24.15 0.3 19.6 0.3L19.6 0.3Q14.7 0.3 10.65-1.98 6.6-4.25 4.23-8.3 1.85-12.35 1.85-17.45L1.85-17.45Q1.85-22.55 4.23-26.6 6.6-30.65 10.68-32.93 14.75-35.2 19.6-35.2L19.6-35.2Q25.15-35.2 29.48-32.48 33.8-29.75 35.75-24.75L35.75-24.75Z" opacity="1" transform="matrix(1,0,0,1,0,0)" fill="#ffffff" class="wordmark-text-0" data-fill-palette-color="primary" id="text-0"></path></svg></g></svg></g></svg></g></svg></g></svg></g><defs></defs></svg><rect width="243.37014084507044" height="247.2" fill="none" stroke="none" visibility="hidden"></rect></g></svg></g></svg>